<?xml version="1.0" encoding="UTF-8"?>
<svg width="32" height="32" viewBox="0 0 32 32" fill="none" xmlns="http://www.w3.org/2000/svg">
  <!-- Background circle with gradient -->
  <defs>
    <linearGradient id="gradient" x1="0%" y1="0%" x2="100%" y2="100%">
      <stop offset="0%" style="stop-color:#4F46E5;stop-opacity:1" />
      <stop offset="100%" style="stop-color:#312E81;stop-opacity:1" />
    </linearGradient>
  </defs>
  <circle cx="16" cy="16" r="15" fill="url(#gradient)" />
  
  <!-- Islamic art border -->
  <path d="M8 8 L24 8 L24 24 L8 24 Z" stroke="white" stroke-width="1" fill="none" />
  <path d="M10 10 L22 10 L22 22 L10 22 Z" stroke="white" stroke-width="1" fill="none" />
  
  <!-- Arabic letter 'Seen' -->
  <path d="M12 16 
           C12 12, 16 12, 16 16
           C16 20, 20 20, 20 16" 
        stroke="white" 
        stroke-width="2" 
        fill="none" 
        stroke-linecap="round" />
  
  <!-- Decorative dots -->
  <circle cx="14" cy="16" r="1" fill="white" />
  <circle cx="18" cy="16" r="1" fill="white" />
  
  <!-- Islamic art flourishes -->
  <path d="M8 12 Q10 10, 12 12" stroke="white" stroke-width="1" fill="none" />
  <path d="M20 12 Q22 10, 24 12" stroke="white" stroke-width="1" fill="none" />
  <path d="M8 20 Q10 22, 12 20" stroke="white" stroke-width="1" fill="none" />
  <path d="M20 20 Q22 22, 24 20" stroke="white" stroke-width="1" fill="none" />
</svg> 